<?xml version="1.0" encoding="UTF-8" standalone="no"?> <svg id="Flat_Gradient" data-name="Flat Gradient" xmlns="http://www.w3.org/2000/svg" xmlns:xlink="http://www.w3.org/1999/xlink" viewBox="0 0 64 64"><defs><style>.cls-1{fill:url(#linear-gradient);}</style><linearGradient id="linear-gradient" x1="4" y1="32" x2="60" y2="32" gradientUnits="userSpaceOnUse"><stop offset="0" stop-color="#9cffac"/><stop offset="1" stop-color="#00b59c"/></linearGradient></defs><title>1</title><path class="cls-1" d="M54,4H39a6.00475,6.00475,0,0,0-6,6V25a6.00475,6.00475,0,0,0,6,6H54a6.00475,6.00475,0,0,0,6-6V10A6.00475,6.00475,0,0,0,54,4ZM51.8,21.8a3.1475,3.1475,0,0,1-3.15,3.14h-4.3A3.1475,3.1475,0,0,1,41.2,21.8V11.06a1.00016,1.00016,0,0,1,2,.00006V21.8a1.148,1.148,0,0,0,1.15,1.14h4.3A1.148,1.148,0,0,0,49.8,21.8V11.06a1,1,0,0,1,2,0ZM54,33H39a6.00475,6.00475,0,0,0-6,6V54a6.00475,6.00475,0,0,0,6,6H54a6.00475,6.00475,0,0,0,6-6V39A6.00475,6.00475,0,0,0,54,33ZM50.8,53.94H42.2a1.00559,1.00559,0,0,1-.88-.52,1.026,1.026,0,0,1,.05-1.03l7.56-11.33H42.2a1.00011,1.00011,0,0,1,.00005-2H50.8a1.00565,1.00565,0,0,1,.88.52,1.02614,1.02614,0,0,1-.05,1.03L44.07,51.94H50.8A1.00011,1.00011,0,0,1,50.8,53.94ZM25,33H10a6.00475,6.00475,0,0,0-6,6V54a6.00475,6.00475,0,0,0,6,6H25a6.00475,6.00475,0,0,0,6-6V39A6.00475,6.00475,0,0,0,25,33ZM18.5,51.33a1.00017,1.00017,0,0,1-2-.00007V38.44a1.00012,1.00012,0,0,1,2,.00005ZM24.48,4H10.52A6.52112,6.52112,0,0,0,4,10.52V24.48A6.52117,6.52117,0,0,0,10.52,31H24.48A6.52117,6.52117,0,0,0,31,24.48V10.52A6.52112,6.52112,0,0,0,24.48,4Zm.54,20.94H14.53a2.33236,2.33236,0,0,1-2.33-2.33V12.39a2.33232,2.33232,0,0,1,2.33-2.33H20.47a2.33232,2.33232,0,0,1,2.33,2.33V22.61a1.65527,1.65527,0,0,1-.04.33h2.26A1.00011,1.00011,0,0,1,25.02,24.94ZM20.8,12.39V22.61a.32652.32652,0,0,1-.33.33H14.53a.32652.32652,0,0,1-.33-.33V12.39a.32652.32652,0,0,1,.33-.33H20.47A.32652.32652,0,0,1,20.8,12.39Z"/></svg>